<svg width="159" height="40" viewBox="0 0 159 40" fill="none" xmlns="http://www.w3.org/2000/svg">
<g clip-path="url(#clip0)">
<path fill-rule="evenodd" clip-rule="evenodd" d="M39.0362 19.9518L23.3253 23.3253L19.9518 39.0362L16.5783 23.3253L0.963867 19.9518L16.5783 16.5783L19.9518 0.963867L23.3253 16.5783L39.0362 19.9518Z" fill="#164397"/>
<path fill-rule="evenodd" clip-rule="evenodd" d="M19.9519 31.4217L17.735 22.1687L8.57837 19.9519L17.735 17.735L19.9519 8.57837L22.1687 17.735L31.4217 19.9519L22.1687 22.1687L19.9519 31.4217Z" fill="#ED1C24"/>
<path fill-rule="evenodd" clip-rule="evenodd" d="M19.9518 0.963855C9.44578 0.963855 0.963855 9.44578 0.963855 19.9518C0.963855 30.4578 9.44578 38.9398 19.9518 38.9398C30.4578 38.9398 38.9398 30.4578 38.9398 19.9518C39.0361 9.44578 30.4578 0.963855 19.9518 0.963855ZM19.9518 0C30.9398 0 39.9036 8.96386 39.9036 19.9518C39.9036 30.9398 30.9398 39.9036 19.9518 39.9036C8.96386 40 0 31.0361 0 19.9518C0 8.96386 8.96386 0 19.9518 0Z" fill="#164397"/>
<path fill-rule="evenodd" clip-rule="evenodd" d="M19.9519 24.7712L18.8917 21.1085L15.229 19.9519L18.8917 18.8917L19.9519 15.229L21.1085 18.8917L24.7712 19.9519L21.1085 21.1085L19.9519 24.7712Z" fill="#FFF200"/>
<path d="M79.7108 13.3013L84.4337 20.5302L84.241 17.5422V13.3013H88.3855V26.6025H84.3374L79.6145 19.3736L79.8072 22.3615V26.6025H75.6627V13.3013H79.7108ZM64.9639 26.6025L60.4337 13.3013H64.8675L67.1807 22.1687L69.5904 13.3013H74.0241L69.3976 26.6025H64.9639ZM59.1807 26.6025H48V13.3013H58.7952V16.3856H52.3373V18.3133H57.8313V21.3977H52.3373V23.5181H59.0843V26.6025H59.1807Z" fill="#164397"/>
<path d="M156.048 26.6023H151.711L154.024 13.3011H158.362L156.048 26.6023ZM144.964 13.012C146.892 13.012 148.434 13.5903 149.494 14.6505C150.458 15.6144 150.94 16.9638 150.94 18.5059C150.94 18.9879 150.94 19.4698 150.843 19.9517C150.458 22.1686 149.494 23.9035 147.952 25.1565C146.506 26.4096 144.675 26.9879 142.651 26.9879C140.819 26.9879 139.374 26.5059 138.313 25.5421C137.253 24.5782 136.771 23.2288 136.771 21.4939C136.771 21.012 136.868 20.4337 136.964 19.8553C137.349 17.7349 138.313 16.0963 139.759 14.8433C141.109 13.5903 142.843 13.012 144.964 13.012ZM144.386 16.2891C143.518 16.2891 142.747 16.6746 142.169 17.5421C141.687 18.2168 141.398 18.9879 141.205 19.9517C141.109 20.4337 141.109 20.8192 141.109 21.2047C141.109 22.9397 141.783 23.8071 143.133 23.8071C144.868 23.8071 146.024 22.5541 146.41 19.9517C146.506 19.5662 146.506 19.1806 146.506 18.8915C146.41 17.0602 145.735 16.1927 144.386 16.2891ZM127.229 13.3011L130.699 20.53L131.084 17.5421L131.856 13.3011H136L133.687 26.6023H129.639L126.169 19.3734L125.783 22.3614L125.012 26.6023H120.868L123.181 13.3011H127.229ZM109.59 26.6023H105.349L112.482 13.3011H116.916L119.325 26.6023H114.988L114.795 24.8674H110.458L109.59 26.6023ZM114.506 22.1686L113.928 17.4457L111.711 22.1686H114.506ZM95.3254 26.6023H90.988L93.3013 13.3011H97.6386L96.8676 17.8312H101.012L101.783 13.3011H106.121L103.807 26.6023H99.47L100.337 21.4939H96.1929L95.3254 26.6023Z" fill="#ED1C24"/>
</g>
<defs>
<clipPath id="clip0">
<rect width="158.361" height="40" fill="white"/>
</clipPath>
</defs>
</svg>
